<svg width="294.8px" height="63.199999999999996px" xmlns="http://www.w3.org/2000/svg" viewBox="102.6 43.400000000000006 294.8 63.199999999999996" style="background: rgb(0, 0, 0);" preserveAspectRatio="xMidYMid"><defs><linearGradient id="editing-glowing-gradient" x1="0.8146601955249186" x2="0.18533980447508142" y1="0.8885729807284856" y2="0.11142701927151444"><stop offset="0" stop-color="#67ff43"></stop><stop offset="1" stop-color="#90ffff"></stop></linearGradient><filter id="editing-glowing" x="-100%" y="-100%" width="300%" height="300%"><feGaussianBlur in="SourceGraphic" result="blur" stdDeviation="10"></feGaussianBlur><feMerge><feMergeNode in="blur"></feMergeNode><feMergeNode in="SourceGraphic"></feMergeNode></feMerge></filter></defs><g filter="url(#editing-glowing)"><g transform="translate(147.96497583389282, 87.09000205993652)"><path d="M15.24-6.79L18.43-0.86L18.43-0.86Q18.51-0.70 18.51-0.52L18.51-0.52L18.51-0.52Q18.51-0.34 18.34-0.17L18.34-0.17L18.34-0.17Q18.17 0 17.94 0L17.94 0L12.61 0L12.61 0Q11.80 0 11.49-0.70L11.49-0.70L9.26-5.67L8.19-5.67L8.19-0.70L8.19-0.70Q8.19-0.42 7.98-0.21L7.98-0.21L7.98-0.21Q7.77 0 7.49 0L7.49 0L2.39 0L2.39 0Q2.11 0 1.90-0.21L1.90-0.21L1.90-0.21Q1.69-0.42 1.69-0.70L1.69-0.70L1.69-17.50L1.69-17.50Q1.69-17.78 1.90-17.99L1.90-17.99L1.90-17.99Q2.11-18.20 2.39-18.20L2.39-18.20L10.09-18.20L10.09-18.20Q13.83-18.20 15.94-16.52L15.94-16.52L15.94-16.52Q18.04-14.85 18.04-11.71L18.04-11.71L18.04-11.71Q18.04-8.58 15.24-6.79L15.24-6.79ZM10.09-13.36L8.19-13.36L8.19-10.61L10.09-10.61L10.09-10.61Q10.66-10.61 10.97-10.99L10.97-10.99L10.97-10.99Q11.28-11.36 11.28-11.93L11.28-11.93L11.28-11.93Q11.28-12.51 10.99-12.94L10.99-12.94L10.99-12.94Q10.69-13.36 10.09-13.36L10.09-13.36ZM20.20-3.87L20.20-3.87L20.20-3.87Q20.20-7.38 25.90-8.37L25.90-8.37L28.65-8.81L28.65-8.81Q28.65-9.59 28.52-9.87L28.52-9.87L28.52-9.87Q28.39-10.14 27.91-10.14L27.91-10.14L27.91-10.14Q27.43-10.14 26.96-9.72L26.96-9.72L26.96-9.72Q26.49-9.31 26.08-9.31L26.08-9.31L21.66-9.31L21.66-9.31Q21.09-9.31 21.09-9.87L21.09-9.87L21.09-9.87Q21.09-10.43 21.49-11.06L21.49-11.06L21.49-11.06Q21.89-11.70 22.66-12.32L22.66-12.32L22.66-12.32Q23.43-12.95 24.82-13.36L24.82-13.36L24.82-13.36Q26.21-13.78 27.92-13.78L27.92-13.78L27.92-13.78Q31.41-13.78 33.15-12.32L33.15-12.32L33.15-12.32Q34.89-10.87 34.89-8.16L34.89-8.16L34.89-0.70L34.89-0.70Q34.89-0.42 34.68-0.21L34.68-0.21L34.68-0.21Q34.48 0 34.19 0L34.19 0L29.64 0L29.64 0Q29.35 0 29.15-0.21L29.15-0.21L29.15-0.21Q28.94-0.42 28.94-0.70L28.94-0.70L28.94-1.43L28.94-1.43Q27.72 0.26 25.38 0.26L25.38 0.26L25.38 0.26Q23.04 0.26 21.62-0.92L21.62-0.92L21.62-0.92Q20.20-2.11 20.20-3.87ZM27.04-3.59L27.04-3.59L27.04-3.59Q28.73-3.59 28.73-5.62L28.73-5.62L27.20-5.28L27.20-5.28Q26.05-5.02 26.05-4.32L26.05-4.32L26.05-4.32Q26.05-4.00 26.31-3.80L26.31-3.80L26.31-3.80Q26.57-3.59 27.04-3.59ZM48.05-8.97L44.77-8.97L44.77-6.11L44.77-6.11Q44.77-4.81 45.89-4.81L45.89-4.81L48.26-4.81L48.26-4.81Q48.54-4.81 48.75-4.60L48.75-4.60L48.75-4.60Q48.96-4.39 48.96-4.11L48.96-4.11L48.96-0.70L48.96-0.70Q48.96-0.42 48.75-0.21L48.75-0.21L48.75-0.21Q48.54 0 48.26 0L48.26 0L45.32 0L45.32 0Q38.82 0 38.82-5.59L38.82-5.59L38.82-8.97L36.76-8.97L36.76-8.97Q36.48-8.97 36.27-9.18L36.27-9.18L36.27-9.18Q36.06-9.39 36.06-9.67L36.06-9.67L36.06-12.82L36.06-12.82Q36.06-13.10 36.27-13.31L36.27-13.31L36.27-13.31Q36.48-13.52 36.76-13.52L36.76-13.52L38.82-13.52L38.82-17.76L38.82-17.76Q38.82-18.04 39.03-18.25L39.03-18.25L39.03-18.25Q39.23-18.46 39.52-18.46L39.52-18.46L44.07-18.46L44.07-18.46Q44.36-18.46 44.56-18.25L44.56-18.25L44.56-18.25Q44.77-18.04 44.77-17.76L44.77-17.76L44.77-13.52L48.05-13.52L48.05-13.52Q48.33-13.52 48.54-13.31L48.54-13.31L48.54-13.31Q48.75-13.10 48.75-12.82L48.75-12.82L48.75-9.67L48.75-9.67Q48.75-9.39 48.54-9.18L48.54-9.18L48.54-9.18Q48.33-8.97 48.05-8.97L48.05-8.97ZM64.51-5.23L64.51-5.23L56.76-5.23L56.76-5.10L56.76-5.10Q56.76-3.51 57.77-3.51L57.77-3.51L57.77-3.51Q58.06-3.51 58.47-3.93L58.47-3.93L58.47-3.93Q58.89-4.34 59.38-4.34L59.38-4.34L64.30-4.34L64.30-4.34Q64.87-4.34 64.87-3.77L64.87-3.77L64.87-3.77Q64.87-2.50 62.96-1.12L62.96-1.12L62.96-1.12Q61.05 0.26 57.79 0.26L57.79 0.26L57.79 0.26Q54.52 0.26 52.46-1.44L52.46-1.44L52.46-1.44Q50.39-3.15 50.39-6.14L50.39-6.14L50.39-7.38L50.39-7.38Q50.39-10.22 52.49-12.00L52.49-12.00L52.49-12.00Q54.60-13.78 58.02-13.78L58.02-13.78L58.02-13.78Q61.44-13.78 63.32-11.78L63.32-11.78L63.32-11.78Q65.21-9.78 65.21-6.71L65.21-6.71L65.21-5.93L65.21-5.93Q65.21-5.64 65.00-5.43L65.00-5.43L65.00-5.43Q64.79-5.23 64.51-5.23ZM58.84-8.58L58.84-8.58Q58.84-10.14 57.80-10.14L57.80-10.14L57.80-10.14Q56.76-10.14 56.76-8.58L56.76-8.58L56.76-8.48L58.84-8.48L58.84-8.58ZM77.30 0L77.30 0L72.20 0L72.20 0Q71.92 0 71.71-0.21L71.71-0.21L71.71-0.21Q71.50-0.42 71.50-0.70L71.50-0.70L71.50-5.82L65.65-17.39L65.65-17.39Q65.60-17.50 65.60-17.68L65.60-17.68L65.60-17.68Q65.60-17.86 65.77-18.03L65.77-18.03L65.77-18.03Q65.94-18.20 66.17-18.20L66.17-18.20L71.06-18.20L71.06-18.20Q71.84-18.20 72.15-17.55L72.15-17.55L74.75-12.32L77.35-17.55L77.35-17.55Q77.66-18.20 78.44-18.20L78.44-18.20L83.33-18.20L83.33-18.20Q83.56-18.20 83.73-18.03L83.73-18.03L83.73-18.03Q83.90-17.86 83.90-17.68L83.90-17.68L83.90-17.68Q83.90-17.50 83.85-17.39L83.85-17.39L78.00-5.82L78.00-0.70L78.00-0.70Q78.00-0.42 77.79-0.21L77.79-0.21L77.79-0.21Q77.58 0 77.30 0ZM91.16-12.82L91.16-12.82L91.16-11.91L91.16-11.91Q92.98-13.52 95.21-13.52L95.21-13.52L96.46-13.52L96.46-13.52Q96.75-13.52 96.95-13.31L96.95-13.31L96.95-13.31Q97.16-13.10 97.16-12.82L97.16-12.82L97.16-8.76L97.16-8.76Q97.16-8.48 96.95-8.27L96.95-8.27L96.95-8.27Q96.75-8.06 96.46-8.06L96.46-8.06L93.11-8.06L93.11-8.06Q92.40-8.06 92.00-7.74L92.00-7.74L92.00-7.74Q91.60-7.41 91.55-6.86L91.55-6.86L91.55-0.70L91.55-0.70Q91.55-0.42 91.34-0.21L91.34-0.21L91.34-0.21Q91.13 0 90.84 0L90.84 0L85.90 0L85.90 0Q85.62 0 85.41-0.21L85.41-0.21L85.41-0.21Q85.20-0.42 85.20-0.70L85.20-0.70L85.20-12.82L85.20-12.82Q85.20-13.10 85.41-13.31L85.41-13.31L85.41-13.31Q85.62-13.52 85.90-13.52L85.90-13.52L90.45-13.52L90.45-13.52Q90.74-13.52 90.95-13.31L90.95-13.31L90.95-13.31Q91.16-13.10 91.16-12.82ZM99.16-12.48L99.16-12.48Q99.16-15.13 101.36-16.80L101.36-16.80L101.36-16.80Q103.56-18.46 107.13-18.46L107.13-18.46L107.13-18.46Q110.71-18.46 112.98-16.72L112.98-16.72L112.98-16.72Q115.26-14.98 115.26-13.08L115.26-13.08L115.26-13.08Q115.26-12.84 115.09-12.68L115.09-12.68L115.09-12.68Q114.92-12.51 114.71-12.51L114.71-12.51L109.51-12.51L109.51-12.51Q108.91-12.51 108.42-12.95L108.42-12.95L108.42-12.95Q107.93-13.39 107.09-13.39L107.09-13.39L107.09-13.39Q105.85-13.39 105.85-12.66L105.85-12.66L105.85-12.66Q105.85-12.27 106.46-12.01L106.46-12.01L106.46-12.01Q107.07-11.75 108.73-11.54L108.73-11.54L108.73-11.54Q112.61-11.05 114.26-9.74L114.26-9.74L114.26-9.74Q115.91-8.42 115.91-5.76L115.91-5.76L115.91-5.76Q115.91-3.09 113.48-1.42L113.48-1.42L113.48-1.42Q111.05 0.26 107.12 0.26L107.12 0.26L107.12 0.26Q103.19 0.26 100.96-1.35L100.96-1.35L100.96-1.35Q98.72-2.96 98.72-5.28L98.72-5.28L98.72-5.28Q98.72-5.51 98.89-5.68L98.89-5.68L98.89-5.68Q99.06-5.85 99.29-5.85L99.29-5.85L104.23-5.85L104.23-5.85Q104.78-5.85 105.44-5.33L105.44-5.33L105.44-5.33Q106.11-4.81 107.28-4.81L107.28-4.81L107.28-4.81Q109.23-4.81 109.23-5.54L109.23-5.54L109.23-5.54Q109.23-6.01 108.52-6.25L108.52-6.25L108.52-6.25Q107.82-6.50 105.87-6.76L105.87-6.76L105.87-6.76Q99.16-7.64 99.16-12.48L99.16-12.48ZM133.17-7.77L133.17-7.77L133.17-5.72L133.17-5.72Q133.17-2.81 131.61-1.27L131.61-1.27L131.61-1.27Q130.05 0.26 127.80 0.26L127.80 0.26L127.80 0.26Q125.55 0.26 124.20-0.96L124.20-0.96L124.20 4.24L124.20 4.24Q124.20 4.52 123.99 4.73L123.99 4.73L123.99 4.73Q123.79 4.94 123.50 4.94L123.50 4.94L118.69 4.94L118.69 4.94Q118.40 4.94 118.20 4.73L118.20 4.73L118.20 4.73Q117.99 4.52 117.99 4.24L117.99 4.24L117.99-12.82L117.99-12.82Q117.99-13.10 118.20-13.31L118.20-13.31L118.20-13.31Q118.40-13.52 118.69-13.52L118.69-13.52L123.11-13.52L123.11-13.52Q123.40-13.52 123.60-13.31L123.60-13.31L123.60-13.31Q123.81-13.10 123.81-12.82L123.81-12.82L123.81-12.04L123.81-12.04Q125.16-13.78 127.63-13.78L127.63-13.78L127.63-13.78Q130.10-13.78 131.64-12.31L131.64-12.31L131.64-12.31Q133.17-10.84 133.17-7.77ZM124.20-7.62L124.20-7.62L124.20-5.69L124.20-5.69Q124.28-4.39 125.50-4.39L125.50-4.39L125.50-4.39Q126.80-4.39 126.80-5.90L126.80-5.90L126.80-7.62L126.80-7.62Q126.80-9.13 125.50-9.13L125.50-9.13L125.50-9.13Q124.20-9.13 124.20-7.62ZM134.99-5.88L134.99-5.88L134.99-7.64L134.99-7.64Q134.99-10.61 137.10-12.19L137.10-12.19L137.10-12.19Q139.20-13.78 142.53-13.78L142.53-13.78L142.53-13.78Q145.86-13.78 147.97-12.19L147.97-12.19L147.97-12.19Q150.07-10.61 150.07-7.64L150.07-7.64L150.07-5.88L150.07-5.88Q150.07-2.89 148.04-1.31L148.04-1.31L148.04-1.31Q146.02 0.26 142.53 0.26L142.53 0.26L142.53 0.26Q139.05 0.26 137.02-1.31L137.02-1.31L137.02-1.31Q134.99-2.89 134.99-5.88ZM143.70-5.67L143.70-5.67L143.70-7.85L143.70-7.85Q143.70-8.84 143.44-9.23L143.44-9.23L143.44-9.23Q143.18-9.62 142.53-9.62L142.53-9.62L142.53-9.62Q141.88-9.62 141.62-9.23L141.62-9.23L141.62-9.23Q141.36-8.84 141.36-7.85L141.36-7.85L141.36-5.67L141.36-5.67Q141.36-4.63 141.62-4.26L141.62-4.26L141.62-4.26Q141.88-3.90 142.53-3.90L142.53-3.90L142.53-3.90Q143.18-3.90 143.44-4.29L143.44-4.29L143.44-4.29Q143.70-4.68 143.70-5.67ZM163.10-8.97L159.82-8.97L159.82-6.11L159.82-6.11Q159.82-4.81 160.94-4.81L160.94-4.81L163.31-4.81L163.31-4.81Q163.59-4.81 163.80-4.60L163.80-4.60L163.80-4.60Q164.01-4.39 164.01-4.11L164.01-4.11L164.01-0.70L164.01-0.70Q164.01-0.42 163.80-0.21L163.80-0.21L163.80-0.21Q163.59 0 163.31 0L163.31 0L160.37 0L160.37 0Q153.87 0 153.87-5.59L153.87-5.59L153.87-8.97L151.81-8.97L151.81-8.97Q151.53-8.97 151.32-9.18L151.32-9.18L151.32-9.18Q151.11-9.39 151.11-9.67L151.11-9.67L151.11-12.82L151.11-12.82Q151.11-13.10 151.32-13.31L151.32-13.31L151.32-13.31Q151.53-13.52 151.81-13.52L151.81-13.52L153.87-13.52L153.87-17.76L153.87-17.76Q153.87-18.04 154.08-18.25L154.08-18.25L154.08-18.25Q154.28-18.46 154.57-18.46L154.57-18.46L159.12-18.46L159.12-18.46Q159.41-18.46 159.61-18.25L159.61-18.25L159.61-18.25Q159.82-18.04 159.82-17.76L159.82-17.76L159.82-13.52L163.10-13.52L163.10-13.52Q163.38-13.52 163.59-13.31L163.59-13.31L163.59-13.31Q163.80-13.10 163.80-12.82L163.80-12.82L163.80-9.67L163.80-9.67Q163.80-9.39 163.59-9.18L163.59-9.18L163.59-9.18Q163.38-8.97 163.10-8.97L163.10-8.97ZM171.18 0L171.18 0L166.53 0L166.53 0Q166.24 0 166.04-0.21L166.04-0.21L166.04-0.21Q165.83-0.42 165.83-0.70L165.83-0.70L165.83-12.82L165.83-12.82Q165.83-13.10 166.04-13.31L166.04-13.31L166.04-13.31Q166.24-13.52 166.53-13.52L166.53-13.52L171.18-13.52L171.18-13.52Q171.47-13.52 171.68-13.31L171.68-13.31L171.68-13.31Q171.89-13.10 171.89-12.82L171.89-12.82L171.89-0.70L171.89-0.70Q171.89-0.42 171.68-0.21L171.68-0.21L171.68-0.21Q171.47 0 171.18 0ZM171.76-18.54L171.76-18.54L171.76-15.39L171.76-15.39Q171.76-15.11 171.55-14.90L171.55-14.90L171.55-14.90Q171.34-14.69 171.05-14.69L171.05-14.69L166.66-14.69L166.66-14.69Q166.37-14.69 166.17-14.90L166.17-14.90L166.17-14.90Q165.96-15.11 165.96-15.39L165.96-15.39L165.96-18.54L165.96-18.54Q165.96-18.82 166.17-19.03L166.17-19.03L166.17-19.03Q166.37-19.24 166.66-19.24L166.66-19.24L171.05-19.24L171.05-19.24Q171.34-19.24 171.55-19.03L171.55-19.03L171.55-19.03Q171.76-18.82 171.76-18.54ZM182.03-13.83L182.03-13.83L182.03-13.52L184.96-13.52L184.96-13.52Q185.25-13.52 185.46-13.31L185.46-13.31L185.46-13.31Q185.67-13.10 185.67-12.82L185.67-12.82L185.67-9.67L185.67-9.67Q185.67-9.39 185.46-9.18L185.46-9.18L185.46-9.18Q185.25-8.97 184.96-8.97L184.96-8.97L182.03-8.97L182.03-0.70L182.03-0.70Q182.03-0.42 181.82-0.21L181.82-0.21L181.82-0.21Q181.61 0 181.32 0L181.32 0L176.77 0L176.77 0Q176.49 0 176.28-0.21L176.28-0.21L176.28-0.21Q176.07-0.42 176.07-0.70L176.07-0.70L176.07-8.97L174.28-8.97L174.28-8.97Q173.99-8.97 173.78-9.18L173.78-9.18L173.78-9.18Q173.58-9.39 173.58-9.67L173.58-9.67L173.58-12.82L173.58-12.82Q173.58-13.10 173.78-13.31L173.78-13.31L173.78-13.31Q173.99-13.52 174.28-13.52L174.28-13.52L176.07-13.52L176.07-13.96L176.07-13.96Q176.07-16.93 177.87-18.08L177.87-18.08L177.87-18.08Q179.66-19.24 182.83-19.24L182.83-19.24L185.25-19.24L185.25-19.24Q185.54-19.24 185.74-19.03L185.74-19.03L185.74-19.03Q185.95-18.82 185.95-18.54L185.95-18.54L185.95-15.39L185.95-15.39Q185.95-15.11 185.74-14.90L185.74-14.90L185.74-14.90Q185.54-14.69 185.25-14.69L185.25-14.69L183.14-14.69L183.14-14.69Q182.03-14.69 182.03-13.83ZM186.99-13.52L186.99-13.52L191.39-13.52L191.39-13.52Q191.98-13.52 192.22-12.90L192.22-12.90L194.35-6.97L196.56-12.90L196.56-12.90Q196.82-13.52 197.44-13.52L197.44-13.52L201.79-13.52L201.79-13.52Q202.02-13.52 202.20-13.35L202.20-13.35L202.20-13.35Q202.38-13.18 202.38-13.00L202.38-13.00L202.38-13.00Q202.38-12.82 202.36-12.71L202.36-12.71L195.03 4.32L195.03 4.32Q194.77 4.94 194.12 4.94L194.12 4.94L189.85 4.94L189.85 4.94Q189.62 4.94 189.45 4.78L189.45 4.78L189.45 4.78Q189.28 4.63 189.28 4.41L189.28 4.41L189.28 4.41Q189.28 4.19 189.31 4.13L189.31 4.13L191.39-0.86L186.37-12.71L186.37-12.71Q186.34-12.79 186.34-12.90L186.34-12.90L186.34-12.90Q186.45-13.52 186.99-13.52Z" fill="url(#editing-glowing-gradient)"></path></g></g><style>text {
  font-size: 64px;
  font-family: Arial Black;
  dominant-baseline: central;
  text-anchor: middle;
}</style></svg>